# xmcd
# 
# Track frame offsets:
#     150
#     20318
#     35440
#     51108
#     74588
#     90566
#     109699
#     127114
# 
# Disc length: 1982
# 
# Revision: 0
# Processed by: cddbd v1.5.2PL0 Copyright (c) Steve Scherf et al.
# Submitted via: fre:ac v1.0.17
# 
DISCID=6807bc08
DTITLE=PiGU - かわいくろっく
DYEAR=2016
DGENRE=JPop
TTITLE0=illusion illusion
TTITLE1=前向きちっとぼっち
TTITLE2=Strong Lovers
TTITLE3=Loved You True
TTITLE4=ままままじっくぽっぷ
TTITLE5=no my way
TTITLE6=ハチャメチャが止まらない
TTITLE7=Walk On (Through The Night)
EXTD=
EXTT0=
EXTT1=
EXTT2=
EXTT3=
EXTT4=
EXTT5=
EXTT6=
EXTT7=
PLAYORDER=
